<svg width="16" height="16" viewBox="0 0 16 16" fill="none" xmlns="http://www.w3.org/2000/svg">
<path fill-rule="evenodd" clip-rule="evenodd" d="M10.3449 0.958172C11.1227 0.858708 11.9097 1.17678 12.7093 1.92915L12.7102 1.93002C13.5125 2.68875 13.8777 3.45841 13.8229 4.24233C13.77 4.99983 13.3309 5.64097 12.8301 6.17001M12.8301 6.17001L7.3595 11.9605C7.20527 12.1284 6.99761 12.2706 6.80075 12.3759C6.60135 12.4825 6.37071 12.5738 6.15418 12.6122L6.15085 12.6128L4.00495 12.9794C3.48457 13.0691 2.98558 12.939 2.63011 12.6019C2.27514 12.2653 2.11828 11.7744 2.17639 11.2514L2.17656 11.2499L2.4243 9.08054C2.45307 8.86474 2.53321 8.63122 2.62768 8.42864C2.72182 8.22679 2.85025 8.01276 3.00224 7.85096L3.00322 7.84993L8.47655 2.05659C8.97757 1.52734 9.59327 1.05429 10.3449 0.958172M9.2031 2.7437C9.20302 2.74379 9.20319 2.74362 9.2031 2.7437L3.73109 8.53564C3.73097 8.53576 3.7312 8.53552 3.73109 8.53564C3.67644 8.59395 3.60137 8.70678 3.53398 8.85129C3.4678 8.99319 3.42806 9.12446 3.41614 9.20884L3.17027 11.3618C3.17025 11.3621 3.17022 11.3623 3.1702 11.3625C3.14186 11.6192 3.22161 11.7847 3.31822 11.8763C3.41442 11.9676 3.58209 12.0375 3.83504 11.9939L3.83581 11.9938L5.98055 11.6274C6.06407 11.6123 6.19275 11.567 6.32925 11.494C6.46764 11.42 6.57174 11.3402 6.62385 11.2831L6.62983 11.2765L12.1032 5.48326C12.549 5.01236 12.7967 4.58326 12.8254 4.1726C12.8522 3.78829 12.6942 3.29146 12.0237 2.6571C11.3568 2.02977 10.8538 1.90123 10.4718 1.95009C10.0635 2.0023 9.64865 2.27312 9.2031 2.7437Z" fill="black"/>
<path fill-rule="evenodd" clip-rule="evenodd" d="M7.84969 2.87261C8.12254 2.8301 8.37819 3.01683 8.4207 3.28968C8.67212 4.90342 9.9818 6.1385 11.6101 6.3025C11.8849 6.33017 12.0852 6.57534 12.0575 6.85009C12.0298 7.12484 11.7846 7.32514 11.5099 7.29746C9.43152 7.08813 7.75454 5.50987 7.43262 3.44362C7.39011 3.17077 7.57684 2.91512 7.84969 2.87261Z" fill="black"/>
<path fill-rule="evenodd" clip-rule="evenodd" d="M1.5 14.6666C1.5 14.3905 1.72386 14.1666 2 14.1666H14C14.2761 14.1666 14.5 14.3905 14.5 14.6666C14.5 14.9428 14.2761 15.1666 14 15.1666H2C1.72386 15.1666 1.5 14.9428 1.5 14.6666Z" fill="black"/>
</svg>
